<svg width="800" height="520" viewBox="0 0 800 520" fill="none" xmlns="http://www.w3.org/2000/svg">
  <rect width="800" height="520" rx="40" fill="#07131E"/>
  <rect width="800" height="520" rx="40" fill="url(#bg)"/>
  <circle cx="657" cy="108" r="110" fill="#22C55E" fill-opacity="0.15"/>
  <circle cx="158" cy="102" r="84" fill="#38BDF8" fill-opacity="0.18"/>
  <path d="M106 404C246 336 363 314 488 323C578 330 653 362 726 349" stroke="#34D399" stroke-width="12" stroke-linecap="round"/>
  <path d="M116 431C250 366 372 342 494 348C589 353 653 380 719 368" stroke="white" stroke-opacity="0.14" stroke-width="6" stroke-linecap="round" stroke-dasharray="1 14"/>
  <circle cx="396" cy="239" r="112" fill="#0F172A" stroke="#E2E8F0" stroke-opacity="0.9" stroke-width="16"/>
  <circle cx="396" cy="239" r="62" fill="url(#wheel)"/>
  <path d="M396 127V232" stroke="#E2E8F0" stroke-width="16" stroke-linecap="round"/>
  <path d="M290 239H396" stroke="#E2E8F0" stroke-width="16" stroke-linecap="round"/>
  <path d="M396 239L474 303" stroke="#E2E8F0" stroke-width="16" stroke-linecap="round"/>
  <path d="M312 239C312 192.608 349.608 155 396 155C442.392 155 480 192.608 480 239" stroke="#22C55E" stroke-width="18" stroke-linecap="round"/>
  <path d="M284 469C284 414.876 327.876 371 382 371H410C464.124 371 508 414.876 508 469V478H284V469Z" fill="#E2E8F0"/>
  <circle cx="396" cy="327" r="58" fill="#F8FAFC"/>
  <circle cx="396" cy="314" r="24" fill="#0F172A"/>
  <rect x="350" y="338" width="92" height="65" rx="30" fill="#0F172A"/>
  <defs>
    <linearGradient id="bg" x1="72" y1="48" x2="742" y2="470" gradientUnits="userSpaceOnUse">
      <stop stop-color="#0A1624"/>
      <stop offset="0.58" stop-color="#102C3A"/>
      <stop offset="1" stop-color="#10211A"/>
    </linearGradient>
    <linearGradient id="wheel" x1="344" y1="177" x2="448" y2="301" gradientUnits="userSpaceOnUse">
      <stop stop-color="#1E293B"/>
      <stop offset="1" stop-color="#0F172A"/>
    </linearGradient>
  </defs>
</svg>
